# xmcd CD database file
#
# Track frame offsets:
#	150
#	10845
#	29522
#	42677
#	53287
#	65515
#	81035
#
# Disc length: 1229 seconds
#
# Revision: 0
# Processed by: cddbd v1.5.2PL0 Copyright (c) Steve Scherf et al.
# Submitted via: CDex 1.70beta2
#
DISCID=5104cb07
DTITLE=Six Foot Seven and the Cousins - Hey Bartender
DYEAR=1998
DGENRE=Blues
TTITLE0=Runnin' wild
TTITLE1=Don't let daddy slow walk you down
TTITLE2=Hey bartender
TTITLE3=Gate's salisity blues
TTITLE4=Can't remember to forget
TTITLE5=Black nights
TTITLE6=Cho cho ch' boogie
EXTD=YEAR: 1998
EXTT0=
EXTT1=
EXTT2=
EXTT3=
EXTT4=
EXTT5=
EXTT6=
PLAYORDER=
